<svg xmlns="http://www.w3.org/2000/svg" width="36" height="34"><path fill="#FFF" fill-rule="evenodd" d="M30.993 30.557c.122 0 .214.11.194.233l-.487 3.017a.199.199 0 01-.189.168l-.998.025a.196.196 0 01-.187-.127l-1.174-3.042a.2.2 0 01.182-.274h2.66zM26.565.117l3.067 6.843c.01.022.022.041.039.058l5.81 6.024c.031.032.05.073.056.116l.461 3.773a.213.213 0 01-.01.094l-3.403 9.43a.197.197 0 01-.158.13l-7.441 1.025a.196.196 0 01-.203-.111L22 21.69a.194.194 0 00-.283-.08l-1.9 1.256a.194.194 0 01-.23-.012l-3.363-2.764a.192.192 0 00-.166-.04l-9.353 2.182a.16.16 0 00-.051.02l-2.969 1.666a.196.196 0 01-.162.012l-2.005-.749a.201.201 0 01-.125-.23l.476-2.308a.215.215 0 000-.08L.004 10.986a.203.203 0 01.103-.218l6.802-3.54a.182.182 0 00.052-.039l4.646-4.918a.193.193 0 01.21-.049l2.274.866a.194.194 0 00.24-.09l1.376-2.49a.197.197 0 01.167-.102l4.534-.08a.2.2 0 01.188.268L19.63 3.33a.205.205 0 00.1.25l4.398 2.123a.195.195 0 00.27-.117L26.2.136a.195.195 0 01.365-.019z" opacity=".5"/></svg>