<svg xmlns="http://www.w3.org/2000/svg" width="26" height="42"><path fill="#FFF" fill-rule="evenodd" d="M13.852.003a.204.204 0 01.237.217l-.246 3.329a.202.202 0 01-.038.104l-2.784 3.861a.204.204 0 00.165.324h5.223c.145 0 .243.147.19.281l-2.795 6.964a.205.205 0 00.06.234l3.62 3.027a.206.206 0 01.054.07l5.276 11.298c.028.06.083.103.148.115l2.871.535a.204.204 0 01.167.2v2.77c0 .05-.018.098-.051.135l-2.446 2.781a.205.205 0 00.08.327l1.042.395c.15.057.179.256.052.354l-2.534 1.946a.205.205 0 01-.106.042l-9.073.803a.18.18 0 00-.045.009l-5.74 1.865c-.19.062-.345-.157-.226-.317l2.493-3.347a.21.21 0 01.104-.074l3.006-.904a.205.205 0 00.026-.382l-4.58-2.088a.205.205 0 01-.019-.362l2.503-1.484a.206.206 0 00.097-.212l-.785-4.437a.204.204 0 01.2-.24h3.566a.204.204 0 00.195-.264l-1.896-6.254a.204.204 0 00-.195-.145H8.084a.204.204 0 01-.198-.252l.787-3.275a.206.206 0 00-.16-.25l-3.682-.69a.204.204 0 01-.165-.228l.812-5.875a.203.203 0 00-.056-.171L3.448 8.72a.205.205 0 01.121-.346l2.432-.296a.201.201 0 00.164-.126l1.838-4.546a.203.203 0 01.17-.126l3.914-.378a.204.204 0 00.183-.185l.208-2.33a.205.205 0 01.17-.183zm-8.986 19.79l2.07 3.613c.047.084.03.19-.041.254l-1.12 1.008a.203.203 0 01-.137.052H2.401a.208.208 0 01-.095-.023L.11 23.534a.205.205 0 01-.06-.314l2.003-2.337a.224.224 0 01.07-.053l2.484-1.12a.202.202 0 01.26.084zm-.62-15.915a.205.205 0 01.34.135l.176 1.977a.205.205 0 01-.11.2l-1.474.757a.203.203 0 01-.293-.145l-.245-1.35a.207.207 0 01.065-.189z"/></svg>