<svg xmlns="http://www.w3.org/2000/svg" width="54" height="34"><path fill="#FFF" fill-rule="evenodd" d="M4.312 22.744L.043 16.412A.25.25 0 010 16.27V7.656c0-.034.007-.069.02-.1l2.04-4.732a.262.262 0 00.019-.073L2.306.717a.247.247 0 01.36-.194l.845.445c.113.06.253.022.322-.086l.492-.768A.247.247 0 014.59.007L14.873 2.45a.265.265 0 00.048.007l12.297.441.023.002 4.624.612c.18.024.274.228.177.383l-.853 1.37c-.106.17.02.392.218.386l5.62-.181c.242-.008.35.306.155.453l-1.798 1.358a.255.255 0 00-.093.263l.703 2.816c.068.273.46.243.487-.037l.23-2.359a.248.248 0 01.138-.201l1.554-.766a.247.247 0 01.335.124l1.937 4.419c.069.158.272.2.396.08l4.632-4.436a.234.234 0 01.055-.04l4.16-2.218a.252.252 0 00.102-.1l1.738-3.183a.245.245 0 01.418-.023l1.778 2.543c.07.1.059.238-.028.325l-2.394 2.378a.252.252 0 00-.048.292l.715 1.452a.25.25 0 01-.039.282l-2.314 2.556a.272.272 0 00-.042.064l-1.909 4.142a.254.254 0 00-.014.174l.87 3.112a.256.256 0 01-.04.218l-4.586 6.31a.25.25 0 00-.023.258l2.709 5.654a.253.253 0 01-.019.252l-1.039 1.536a.245.245 0 01-.398.015l-4.23-5.375a.242.242 0 00-.234-.09l-7.973 1.356a.1.1 0 00-.026.006l-6.074 1.729a.252.252 0 00-.172.175l-.77 2.83a.248.248 0 01-.305.176l-1.64-.462a.252.252 0 01-.136-.097l-3.094-4.446a.245.245 0 00-.324-.074l-1.365.778a.245.245 0 01-.317-.064L15.66 25.66a.247.247 0 00-.138-.09L4.458 22.846a.246.246 0 01-.146-.102z" opacity=".5"/></svg>