<svg xmlns="http://www.w3.org/2000/svg" width="50" height="50"><path fill="#FFF" fill-rule="evenodd" d="M25 0c13.807 0 25 11.193 25 25S38.807 50 25 50 0 38.807 0 25 11.193 0 25 0zm1.14 11.667h-2.417c-2.514.004-3.013.023-4.249.078-1.406.062-2.374.29-3.212.618a6.454 6.454 0 00-2.348 1.538 6.55 6.55 0 00-1.526 2.354c-.326.847-.553 1.814-.615 3.227-.061 1.29-.08 1.783-.083 4.552v2.181c.005 2.498.023 3 .077 4.237.063 1.413.29 2.385.616 3.227a6.574 6.574 0 001.531 2.36 6.513 6.513 0 002.343 1.532c.843.327 1.805.556 3.212.618 1.28.057 1.77.075 4.526.078h2.17c2.488-.004 2.988-.023 4.218-.078 1.407-.062 2.374-.29 3.212-.618a6.787 6.787 0 003.874-3.892c.326-.847.554-1.814.616-3.227.056-1.286.074-1.778.077-4.547V23.19c-.004-2.044-.017-2.56-.067-3.703-.062-1.413-.29-2.385-.615-3.227a6.517 6.517 0 00-1.531-2.359 6.532 6.532 0 00-2.344-1.533c-.843-.327-1.805-.556-3.212-.618-1.24-.06-1.74-.079-4.253-.083zm.045 2.417c2.422.004 2.896.023 4.105.077 1.293.057 1.991.275 2.457.457a4.065 4.065 0 011.52.993c.44.431.776.95.989 1.528.18.467.398 1.174.455 2.468.056 1.267.074 1.733.077 4.427v2.193c-.005 2.429-.023 2.902-.077 4.121-.057 1.3-.274 2-.455 2.468a4.399 4.399 0 01-2.514 2.526c-.466.182-1.17.4-2.457.457-1.213.054-1.689.073-4.108.077h-2.48c-2.421-.004-2.9-.023-4.109-.077-1.293-.057-1.991-.275-2.457-.457a4.065 4.065 0 01-1.52-.993 4.123 4.123 0 01-.988-1.527c-.181-.468-.399-1.175-.455-2.469-.057-1.267-.075-1.733-.078-4.427v-2.194c.005-2.43.024-2.911.078-4.125.056-1.3.274-2 .455-2.468a4.039 4.039 0 01.993-1.528c.429-.442.946-.78 1.52-.993.466-.182 1.17-.4 2.457-.457 1.262-.056 1.726-.075 4.407-.078zm-1.254 4.052c-3.755 0-6.801 3.06-6.801 6.834 0 3.772 3.046 6.833 6.801 6.833 3.756 0 6.802-3.06 6.802-6.833s-3.046-6.834-6.802-6.834zm0 2.401c2.437 0 4.412 1.985 4.412 4.433 0 2.447-1.975 4.432-4.412 4.432-2.436 0-4.412-1.985-4.412-4.432 0-2.448 1.976-4.433 4.412-4.433zm7.07-4.266c-.876 0-1.587.714-1.587 1.595s.711 1.595 1.588 1.595c.877 0 1.588-.714 1.588-1.595s-.711-1.595-1.588-1.595z"/></svg>