<svg width="60" height="60" xmlns="http://www.w3.org/2000/svg"><g fill="none" fill-rule="evenodd"><rect fill="#3B5998" width="60" height="60" rx="30"/><path d="M44.234 13h-28.47C14.79 13 14 13.798 14 14.78v28.698c0 .983.791 1.78 1.766 1.78h15.328V32.782h-4.157V27.9h4.157v-3.593c0-4.167 2.523-6.435 6.21-6.435 1.767 0 3.285.132 3.727.192v4.355h-2.543c-2.006 0-2.394.96-2.394 2.371v3.11h4.797l-.625 4.883h-4.172v12.474h8.14c.975 0 1.766-.796 1.766-1.78V14.779c0-.983-.791-1.779-1.766-1.779z" fill="#FFF" fill-rule="nonzero"/></g></svg>