<svg width="60" height="60" xmlns="http://www.w3.org/2000/svg"><g fill="none" fill-rule="evenodd"><rect fill="#E1306C" width="60" height="60" rx="30"/><g fill="#FFF" fill-rule="nonzero"><path d="M45.714 23.385c-.074-1.696-.347-2.862-.738-3.873a7.793 7.793 0 00-1.838-2.83 7.816 7.816 0 00-2.812-1.84c-1.011-.393-2.166-.667-3.854-.742-1.7-.081-2.24-.1-6.554-.1s-4.854.019-6.549.094c-1.688.074-2.849.349-3.854.741a7.75 7.75 0 00-2.818 1.846 7.863 7.863 0 00-1.831 2.825c-.391 1.017-.664 2.176-.739 3.872-.08 1.71-.1 2.252-.1 6.586 0 4.333.02 4.876.094 6.578.074 1.696.348 2.862.739 3.873a7.875 7.875 0 001.837 2.83 7.816 7.816 0 002.812 1.84c1.011.393 2.166.667 3.854.742 1.694.075 2.235.094 6.548.094 4.314 0 4.854-.019 6.549-.094 1.688-.075 2.849-.349 3.854-.742a8.146 8.146 0 004.65-4.67c.39-1.017.663-2.177.738-3.873.074-1.702.093-2.245.093-6.578 0-4.334-.006-4.877-.08-6.58zm-2.861 13.033c-.069 1.558-.33 2.4-.546 2.962a5.283 5.283 0 01-3.017 3.03c-.559.218-1.403.48-2.948.549-1.676.075-2.179.093-6.418.093-4.24 0-4.748-.018-6.418-.093-1.552-.069-2.39-.33-2.949-.549a4.887 4.887 0 01-1.824-1.19 4.965 4.965 0 01-1.186-1.834c-.217-.561-.478-1.41-.546-2.962-.075-1.684-.093-2.189-.093-6.448 0-4.26.018-4.77.093-6.448.068-1.559.329-2.4.546-2.962a4.854 4.854 0 011.192-1.833 4.93 4.93 0 011.825-1.191c.558-.218 1.403-.48 2.948-.549 1.676-.075 2.179-.093 6.418-.093 4.246 0 4.748.018 6.418.093 1.552.069 2.39.33 2.948.549.69.255 1.316.66 1.825 1.19a4.964 4.964 0 011.186 1.834c.217.562.477 1.41.546 2.962.074 1.684.093 2.189.093 6.448s-.019 4.758-.093 6.442z"/><path d="M29.918 21.764c-4.507 0-8.163 3.672-8.163 8.2 0 4.527 3.656 8.2 8.163 8.2 4.506 0 8.162-3.673 8.162-8.2 0-4.528-3.656-8.2-8.162-8.2zm0 13.519c-2.924 0-5.295-2.382-5.295-5.32 0-2.937 2.371-5.319 5.295-5.319 2.923 0 5.294 2.382 5.294 5.32 0 2.937-2.37 5.319-5.294 5.319zM40.308 21.44a1.91 1.91 0 01-1.906 1.914 1.91 1.91 0 01-1.905-1.915 1.91 1.91 0 011.905-1.914 1.91 1.91 0 011.906 1.914z"/></g></g></svg>