<svg xmlns="http://www.w3.org/2000/svg" width="27" height="32"><path fill="#FFF" d="M16.977 32H5.012C2.248 32 0 29.757 0 27V10.062c0-2.757 2.248-5 5.012-5h11.965c2.763 0 5.011 2.243 5.011 5V27c0 2.757-2.248 5-5.011 5zM5.012 7.562a2.506 2.506 0 00-2.506 2.5V27c0 1.378 1.124 2.5 2.506 2.5h11.965a2.507 2.507 0 002.506-2.5V10.062c0-1.378-1.125-2.5-2.506-2.5H5.012zM21.988 0C24.752 0 27 2.243 27 5v18.875c0 .69-.56 1.25-1.253 1.25-.692 0-1.253-.56-1.253-1.25V5c0-1.378-1.124-2.5-2.506-2.5H8.081c-.692 0-1.253-.56-1.253-1.25S7.39 0 8.081 0zm-4.9 12.663a1.2 1.2 0 01.349 1.563l-.07.11-7.109 9.954a1.2 1.2 0 01-1.757.214l-.101-.098-2.86-3.096a1.2 1.2 0 011.67-1.719l.094.091 1.857 2.013 6.251-8.752a1.2 1.2 0 011.674-.28z"/></svg>