<svg width="60" height="60" xmlns="http://www.w3.org/2000/svg"><g fill="none" fill-rule="evenodd"><rect fill="#0077B5" width="60" height="60" rx="30"/><g fill="#FFF" fill-rule="nonzero"><path d="M19.76 13.016c-2.274 0-3.76 1.493-3.76 3.455 0 1.918 1.442 3.454 3.672 3.454h.043c2.318 0 3.76-1.536 3.76-3.454-.043-1.962-1.442-3.455-3.716-3.455zM16.393 22.654h6.645v19.994h-6.645zM39.35 22.185c-3.585 0-5.99 3.369-5.99 3.369v-2.9h-6.645v19.994h6.645V31.483c0-.598.044-1.195.22-1.622.48-1.194 1.573-2.43 3.409-2.43 2.404 0 3.366 1.833 3.366 4.52v10.697H47V31.184c0-6.141-3.279-8.999-7.65-8.999z"/></g></g></svg>