<svg width="60" height="60" xmlns="http://www.w3.org/2000/svg"><g fill="none" fill-rule="evenodd"><rect fill="#5045FD" width="60" height="60" rx="30"/><g fill="#FFF" fill-rule="nonzero"><path d="M33.394 26.447a7.39 7.39 0 00-10.487 0l-6.738 6.773a7.467 7.467 0 00-2.167 5.258c-.002 4.115 3.316 7.452 7.41 7.455a7.35 7.35 0 005.24-2.171l5.56-5.588a.533.533 0 00-.376-.91h-.211a8.879 8.879 0 01-3.39-.66.528.528 0 00-.577.118l-4 4.023a3.17 3.17 0 01-4.496 0 3.205 3.205 0 010-4.518l6.764-6.79a3.168 3.168 0 014.491 0c.836.79 2.14.79 2.977 0 .36-.362.578-.841.614-1.351a2.134 2.134 0 00-.614-1.64z"/><path d="M43.61 16.182a7.391 7.391 0 00-10.486 0l-5.557 5.577a.534.534 0 00.387.91h.196a8.862 8.862 0 013.384.665.528.528 0 00.578-.117l3.988-4.002a3.17 3.17 0 014.497 0 3.205 3.205 0 010 4.518l-4.968 4.986-.043.048L33.85 30.5a3.168 3.168 0 01-4.491 0 2.164 2.164 0 00-2.977 0c-.362.365-.58.849-.615 1.363-.038.61.186 1.206.615 1.639a7.352 7.352 0 002.118 1.49c.112.053.223.095.334.143.111.048.228.085.34.128.11.042.227.08.338.112l.313.085c.211.053.423.095.64.133.262.039.525.064.79.074h.402l.318-.037c.116-.005.238-.032.376-.032h.18l.366-.053.17-.032.306-.064h.059a7.406 7.406 0 003.437-1.958l6.742-6.774a7.474 7.474 0 000-10.536z"/></g></g></svg>