<svg width="60" height="60" xmlns="http://www.w3.org/2000/svg"><g fill="none" fill-rule="evenodd"><rect fill="#FF4500" width="60" height="60" rx="30"/><path d="M36.184 35.054a2.827 2.827 0 01-2.815-2.828 2.827 2.827 0 012.815-2.828c1.55 0 2.815 1.27 2.815 2.828a2.827 2.827 0 01-2.815 2.828m.497 4.641c-1.924 1.927-5.603 2.08-6.684 2.08-1.08 0-4.765-.153-6.683-2.08a.734.734 0 010-1.037.725.725 0 011.032 0c1.21 1.217 3.798 1.65 5.651 1.65 1.848 0 4.441-.433 5.652-1.65a.725.725 0 011.032 0 .743.743 0 010 1.037m-15.696-7.469a2.827 2.827 0 012.815-2.828c1.55 0 2.815 1.27 2.815 2.828a2.827 2.827 0 01-2.815 2.829 2.827 2.827 0 01-2.815-2.829M48 29.398a3.945 3.945 0 00-3.939-3.957 3.9 3.9 0 00-2.734 1.113c-2.69-1.954-6.402-3.213-10.536-3.36l1.794-8.484 5.863 1.254c.07 1.498 1.29 2.692 2.798 2.692a2.82 2.82 0 002.815-2.828A2.82 2.82 0 0041.246 13a2.798 2.798 0 00-2.512 1.58l-6.549-1.401a.701.701 0 00-.831.543s-1.967 9.412-1.967 9.467c-4.21.108-7.991 1.373-10.725 3.354a3.9 3.9 0 00-2.723-1.102c-2.178 0-3.939 1.775-3.939 3.957 0 1.607.956 2.991 2.329 3.61-.06.39-.092.792-.092 1.2 0 6.09 7.056 11.024 15.76 11.024s15.76-4.934 15.76-11.024c0-.402-.032-.798-.09-1.19A3.976 3.976 0 0048 29.399" fill="#FFF" fill-rule="nonzero"/></g></svg>