<svg width="60" height="60" xmlns="http://www.w3.org/2000/svg"><g fill="none" fill-rule="evenodd"><rect fill="#1DA1F2" width="60" height="60" rx="30"/><path d="M24.304 46.346c13.56 0 20.974-11.285 20.974-21.071 0-.321-.006-.64-.02-.958a15.04 15.04 0 003.677-3.835c-1.321.59-2.743.987-4.234 1.167a7.428 7.428 0 003.242-4.097 14.743 14.743 0 01-4.681 1.798 7.348 7.348 0 00-5.381-2.34c-4.07 0-7.372 3.316-7.372 7.405 0 .581.065 1.146.19 1.688-6.126-.31-11.559-3.256-15.194-7.737a7.415 7.415 0 00-.998 3.722 7.41 7.41 0 003.28 6.165 7.288 7.288 0 01-3.338-.926l-.001.094c0 3.587 2.54 6.581 5.914 7.26a7.366 7.366 0 01-3.33.127c.939 2.943 3.66 5.084 6.887 5.144a14.746 14.746 0 01-9.156 3.17c-.594 0-1.181-.034-1.758-.103a20.797 20.797 0 0011.3 3.327" fill="#FFF" fill-rule="nonzero"/></g></svg>