<svg width="60" height="60" xmlns="http://www.w3.org/2000/svg"><g fill="none" fill-rule="evenodd"><rect fill="#25D366" width="60" height="60" rx="30"/><path d="M43.622 17.256A17.682 17.682 0 0031.002 12c-9.832 0-17.834 8.04-17.838 17.92a17.954 17.954 0 002.38 8.96l-2.53 9.287 9.457-2.492a17.755 17.755 0 008.525 2.182h.007c9.832 0 17.835-8.04 17.839-17.922a17.854 17.854 0 00-5.22-12.679zM31.002 44.83h-.005c-2.66-.001-5.27-.72-7.547-2.076l-.541-.323-5.612 1.479 1.498-5.497-.353-.564a14.91 14.91 0 01-2.266-7.927c.003-8.213 6.654-14.895 14.833-14.895a14.691 14.691 0 0110.482 4.368 14.843 14.843 0 014.339 10.539c-.004 8.213-6.655 14.896-14.827 14.896zm8.134-11.156c-.446-.225-2.637-1.308-3.046-1.457-.408-.15-.706-.224-1.003.224-.297.448-1.151 1.457-1.411 1.755-.26.3-.52.337-.966.113-.446-.224-1.882-.698-3.584-2.223-1.325-1.188-2.22-2.654-2.48-3.102-.26-.449-.002-.668.195-.914.483-.602.966-1.233 1.115-1.532.148-.299.074-.56-.038-.784-.11-.224-1.002-2.429-1.374-3.325-.362-.873-.729-.755-1.003-.77-.26-.012-.557-.015-.854-.015-.297 0-.78.112-1.189.56-.408.45-1.56 1.532-1.56 3.736 0 2.205 1.598 4.334 1.82 4.633.223.299 3.144 4.822 7.615 6.761 1.063.462 1.893.737 2.541.944 1.068.34 2.04.293 2.807.177.857-.128 2.637-1.083 3.01-2.129.37-1.046.37-1.943.259-2.13-.111-.186-.409-.298-.854-.522z" fill="#FFF" fill-rule="nonzero"/></g></svg>